<?xml version="1.0" encoding="UTF-8"?>
<svg width="500" height="400" viewBox="0 0 500 400" xmlns="http://www.w3.org/2000/svg">
    <defs>
        <!-- グラデーションと効果 -->
        <linearGradient id="trackGradient" x1="0%" y1="0%" x2="100%" y2="0%">
            <stop offset="0%" stop-color="#fff" stop-opacity="0.8" />
            <stop offset="100%" stop-color="#aaa" stop-opacity="0.8" />
        </linearGradient>
        
        <radialGradient id="highlightPoint" cx="50%" cy="50%" r="50%" fx="50%" fy="50%">
            <stop offset="0%" stop-color="#f22" stop-opacity="1" />
            <stop offset="100%" stop-color="#f22" stop-opacity="0.3" />
        </radialGradient>
        
        <filter id="sketchBlur" x="-10%" y="-10%" width="120%" height="120%">
            <feGaussianBlur stdDeviation="0.5" result="blur" />
            <feComposite in="SourceGraphic" in2="blur" operator="over" />
        </filter>
        
        <filter id="paperTexture" x="0%" y="0%" width="100%" height="100%">
            <feTurbulence type="fractalNoise" baseFrequency="0.04" numOctaves="5" result="noise" />
            <feColorMatrix type="matrix" values="1 0 0 0 0 0 1 0 0 0 0 0 1 0 0 0 0 0 0.05 0" />
            <feComposite in="SourceGraphic" in2="noise" operator="in" />
        </filter>
        
        <!-- 矢印マーカー -->
        <marker id="redArrow" markerWidth="10" markerHeight="10" refX="9" refY="3" orient="auto">
            <path d="M0,0 L0,6 L9,3 z" fill="#f22" />
        </marker>
        
        <marker id="whiteArrow" markerWidth="10" markerHeight="10" refX="9" refY="3" orient="auto">
            <path d="M0,0 L0,6 L9,3 z" fill="#fff" />
        </marker>
    </defs>
    
    <!-- 背景 - 設計図的な雰囲気 -->
    <rect width="500" height="400" fill="#111" />
    
    <!-- グリッド背景 -->
    <g opacity="0.1">
        <!-- 横線 -->
        <line x1="0" y1="50" x2="500" y2="50" stroke="#fff" stroke-width="0.2" />
        <line x1="0" y1="100" x2="500" y2="100" stroke="#fff" stroke-width="0.2" />
        <line x1="0" y1="150" x2="500" y2="150" stroke="#fff" stroke-width="0.2" />
        <line x1="0" y1="200" x2="500" y2="200" stroke="#fff" stroke-width="0.2" />
        <line x1="0" y1="250" x2="500" y2="250" stroke="#fff" stroke-width="0.2" />
        <line x1="0" y1="300" x2="500" y2="300" stroke="#fff" stroke-width="0.2" />
        <line x1="0" y1="350" x2="500" y2="350" stroke="#fff" stroke-width="0.2" />
        
        <!-- 縦線 -->
        <line x1="50" y1="0" x2="50" y2="400" stroke="#fff" stroke-width="0.2" />
        <line x1="100" y1="0" x2="100" y2="400" stroke="#fff" stroke-width="0.2" />
        <line x1="150" y1="0" x2="150" y2="400" stroke="#fff" stroke-width="0.2" />
        <line x1="200" y1="0" x2="200" y2="400" stroke="#fff" stroke-width="0.2" />
        <line x1="250" y1="0" x2="250" y2="400" stroke="#fff" stroke-width="0.2" />
        <line x1="300" y1="0" x2="300" y2="400" stroke="#fff" stroke-width="0.2" />
        <line x1="350" y1="0" x2="350" y2="400" stroke="#fff" stroke-width="0.2" />
        <line x1="400" y1="0" x2="400" y2="400" stroke="#fff" stroke-width="0.2" />
        <line x1="450" y1="0" x2="450" y2="400" stroke="#fff" stroke-width="0.2" />
    </g>
    
    <!-- タイトル -->
    <text x="250" y="30" font-family="Arial" font-size="18" fill="#fff" text-anchor="middle" font-weight="bold">エンジンRCコース設計案</text>
    <text x="250" y="50" font-family="Arial" font-size="12" fill="#aaa" text-anchor="middle">袖ケ浦フォレストレースウェイ併設</text>
    
    <!-- スケッチ風のコースレイアウト - 下書き線 -->
    <path d="M70,200 C90,160 120,130 160,120 C200,110 230,130 250,110 C270,90 290,80 320,100 C350,120 370,150 370,190 C370,230 340,260 300,270 C260,280 220,260 190,230 C160,200 130,210 100,220 C70,230 50,200 70,200 Z" 
          stroke="#444" stroke-width="1" fill="none" stroke-dasharray="5,2" />
    
    <!-- メインのコースレイアウト - 仕上げ線 -->
    <path d="M70,200 C90,160 120,130 160,120 C200,110 230,130 250,110 C270,90 290,80 320,100 C350,120 370,150 370,190 C370,230 340,260 300,270 C260,280 220,260 190,230 C160,200 130,210 100,220 C70,230 50,200 70,200 Z" 
          stroke="#fff" stroke-width="2" fill="none" filter="url(#sketchBlur)" />
    
    <!-- コースの内側ライン -->
    <path d="M85,200 C102,167 130,143 162,135 C195,127 223,142 240,127 C257,112 277,103 300,118 C323,133 340,158 340,190 C340,222 317,247 285,256 C253,265 222,247 197,224 C172,201 150,210 125,218 C100,226 70,210 85,200 Z" 
          stroke="#fff" stroke-width="1" fill="none" stroke-dasharray="3,1" opacity="0.7" />
    
    <!-- コースの外側ライン -->
    <path d="M55,200 C78,152 110,117 157,105 C204,93 236,118 259,94 C282,70 302,58 339,83 C376,108 399,143 399,190 C399,237 363,272 314,284 C265,296 218,271 183,236 C148,201 110,210 75,223 C40,236 32,248 55,200 Z" 
          stroke="#fff" stroke-width="1" fill="none" stroke-dasharray="3,1" opacity="0.7" />
    
    <!-- テクニカルなコーナーのハイライト -->
    <g>
        <!-- コーナー1 - テクニカルセクション -->
        <circle cx="160" cy="120" r="8" fill="url(#highlightPoint)" opacity="0.8">
            <animate attributeName="opacity" values="0.8;0.4;0.8" dur="2s" repeatCount="indefinite" />
        </circle>
        <text x="150" y="105" font-family="Arial" font-size="10" fill="#fff">テクニカルコーナー</text>
        
        <!-- コーナー2 - 高速セクション -->
        <circle cx="320" cy="100" r="8" fill="url(#highlightPoint)" opacity="0.7">
            <animate attributeName="opacity" values="0.7;0.35;0.7" dur="3s" repeatCount="indefinite" />
        </circle>
        <text x="320" y="85" font-family="Arial" font-size="10" fill="#fff">高速セクション</text>
        
        <!-- コーナー3 - ヘアピン -->
        <circle cx="300" cy="270" r="8" fill="url(#highlightPoint)" opacity="0.6">
            <animate attributeName="opacity" values="0.6;0.3;0.6" dur="2.5s" repeatCount="indefinite" />
        </circle>
        <text x="295" y="290" font-family="Arial" font-size="10" fill="#fff">ヘアピン</text>
        
        <!-- コーナー4 - 下り勾配 -->
        <circle cx="130" cy="210" r="8" fill="url(#highlightPoint)" opacity="0.65">
            <animate attributeName="opacity" values="0.65;0.3;0.65" dur="2.2s" repeatCount="indefinite" />
        </circle>
        <text x="120" y="230" font-family="Arial" font-size="10" fill="#fff">下り勾配</text>
    </g>
    
    <!-- 高低差を示す矢印と注釈 -->
    <g>
        <!-- 上り勾配 -->
        <path d="M250,110 L260,80" stroke="#f22" stroke-width="2" marker-end="url(#redArrow)" />
        <text x="265" y="75" font-family="Arial" font-size="10" fill="#f22">高低差(+3m)</text>
        
        <!-- 下り勾配 -->
        <path d="M130,210 L120,240" stroke="#f22" stroke-width="2" marker-end="url(#redArrow)" />
        <text x="125" y="255" font-family="Arial" font-size="10" fill="#f22">高低差(-4m)</text>
    </g>
    
    <!-- スタート/フィニッシュライン -->
    <line x1="60" y1="200" x2="80" y2="200" stroke="#f22" stroke-width="3" />
    <text x="70" y="190" font-family="Arial" font-size="10" fill="#fff">START</text>
    
    <!-- ピットエリア -->
    <rect x="80" y="170" width="50" height="15" fill="none" stroke="#fff" stroke-width="1" stroke-dasharray="2,2" />
    <text x="105" y="165" font-family="Arial" font-size="8" fill="#aaa">ピットエリア</text>
    
    <!-- 観客エリア -->
    <g>
        <rect x="90" y="240" width="80" height="20" fill="none" stroke="#aaa" stroke-width="1" stroke-dasharray="3,3" rx="5" ry="5" />
        <text x="130" y="254" font-family="Arial" font-size="8" fill="#aaa">観客エリアA</text>
        
        <rect x="280" y="190" width="80" height="20" fill="none" stroke="#aaa" stroke-width="1" stroke-dasharray="3,3" rx="5" ry="5" />
        <text x="320" y="204" font-family="Arial" font-size="8" fill="#aaa">観客エリアB</text>
    </g>
    
    <!-- 寸法線 -->
    <g>
        <line x1="160" y1="280" x2="160" y2="310" stroke="#fff" stroke-width="1" stroke-dasharray="2,1" />
        <line x1="310" y1="280" x2="310" y2="310" stroke="#fff" stroke-width="1" stroke-dasharray="2,1" />
        <line x1="160" y1="300" x2="310" y2="300" stroke="#fff" stroke-width="1" marker-start="url(#whiteArrow)" marker-end="url(#whiteArrow)" />
        <text x="235" y="295" font-family="Arial" font-size="10" fill="#fff" text-anchor="middle">150m</text>
    </g>
    
    <!-- 説明テキスト - 技術情報 -->
    <g transform="translate(30, 330)">
        <rect width="440" height="60" fill="rgba(0,0,0,0.3)" stroke="#333" stroke-width="1" rx="5" ry="5" />
        <text x="10" y="15" font-family="Arial" font-size="10" fill="#fff">【技術仕様】</text>
        <text x="10" y="30" font-family="Arial" font-size="9" fill="#fff">・全長: 約230m ・コース幅: 3m (世界選手権規格) ・最大勾配: 10%</text>
        <text x="10" y="45" font-family="Arial" font-size="9" fill="#fff">・対象: 初心者〜上級者 ・ハイライトポイント: テクニカルセクション、高速ストレート、アップダウン</text>
        <text x="10" y="60" font-family="Arial" font-size="9" fill="#fff">・施工素材: 専用アスファルト（高グリップ） ・排水システム: 4箇所設置</text>
    </g>
    
    <!-- 袖ケ浦の特性を活かした自然環境表現 -->
    <g opacity="0.4">
        <path d="M30,120 C40,110 50,115 45,125 C40,135 30,130 30,120 Z" stroke="#0c0" stroke-width="0.5" fill="none" />
        <path d="M40,100 C50,90 60,95 55,105 C50,115 40,110 40,100 Z" stroke="#0c0" stroke-width="0.5" fill="none" />
        <path d="M25,140 C35,130 45,135 40,145 C35,155 25,150 25,140 Z" stroke="#0c0" stroke-width="0.5" fill="none" />
        
        <path d="M410,150 C420,140 430,145 425,155 C420,165 410,160 410,150 Z" stroke="#0c0" stroke-width="0.5" fill="none" />
        <path d="M420,130 C430,120 440,125 435,135 C430,145 420,140 420,130 Z" stroke="#0c0" stroke-width="0.5" fill="none" />
        <path d="M405,170 C415,160 425,165 420,175 C415,185 405,180 405,170 Z" stroke="#0c0" stroke-width="0.5" fill="none" />
    </g>
    
    <!-- コンパス/方角記号 -->
    <g transform="translate(450, 80)">
        <circle cx="0" cy="0" r="15" fill="none" stroke="#fff" stroke-width="0.5" />
        <path d="M0,-15 L0,15 M-15,0 L15,0" stroke="#fff" stroke-width="0.5" />
        <text x="0" y="-18" font-family="Arial" font-size="8" fill="#fff" text-anchor="middle">N</text>
        <text x="0" y="25" font-family="Arial" font-size="8" fill="#fff" text-anchor="middle">S</text>
        <text x="-18" y="3" font-family="Arial" font-size="8" fill="#fff" text-anchor="middle">W</text>
        <text x="18" y="3" font-family="Arial" font-size="8" fill="#fff" text-anchor="middle">E</text>
    </g>
    
    <!-- 設計者サイン風のエフェクト -->
    <text x="420" y="380" font-family="Brush Script MT, cursive" font-size="12" fill="#aaa" font-style="italic">Design: SFRW 2025</text>
</svg> 