<?xml version="1.0" encoding="UTF-8" standalone="no"?>
<svg xmlns="http://www.w3.org/2000/svg" viewBox="0 0 800 600" width="800" height="600">
  <!-- 背景 -->
  <rect x="0" y="0" width="800" height="600" fill="#4a783c"/>
  
  <!-- メインコース -->
  <path d="M 120,110 C 220,110 300,90 400,90 C 500,90 600,110 700,110 
           C 700,160 690,180 670,230 C 650,280 640,320 640,350
           C 620,400 580,420 550,440 C 520,460 500,480 480,530
           C 450,530 420,530 400,520 C 380,510 360,490 340,460
           C 320,430 290,420 260,400 C 230,380 200,360 180,310
           C 160,260 150,230 140,190 C 130,150 120,130 120,110 Z" 
        fill="#888" stroke="#444" stroke-width="2"/>
        
  <!-- コース内側のライン -->
  <path d="M 160,150 C 240,150 310,130 400,130 C 490,130 550,150 630,150
           C 630,190 620,210 600,250 C 580,290 570,320 570,340
           C 550,380 520,400 500,410 C 480,420 460,440 450,470
           C 420,470 400,470 390,460 C 370,450 360,420 340,400
           C 320,380 290,370 270,350 C 250,330 230,310 210,270
           C 190,230 180,200 170,170 C 160,140 160,150 160,150 Z" 
        fill="#bcbaa3" stroke="#444" stroke-width="2"/>
        
  <!-- コース内の池 -->
  <ellipse cx="380" cy="350" rx="80" ry="60" fill="#7699bc" opacity="0.8"/>
  
  <!-- 赤白のカーブ目印 -->
  <!-- 1コーナー付近 -->
  <path d="M 120,110 C 130,110 140,110 150,110" stroke="#FFF" stroke-width="6" stroke-dasharray="10,10"/>
  <path d="M 120,110 C 130,110 140,110 150,110" stroke="#F00" stroke-width="6" stroke-dasharray="0,10,10,0"/>
  
  <!-- 最終コーナー付近 -->
  <path d="M 700,110 C 690,120 680,130 670,140" stroke="#FFF" stroke-width="6" stroke-dasharray="10,10"/>
  <path d="M 700,110 C 690,120 680,130 670,140" stroke="#F00" stroke-width="6" stroke-dasharray="0,10,10,0"/>
  
  <!-- 8コーナー付近 -->
  <path d="M 200,230 C 210,250 220,270 230,290" stroke="#FFF" stroke-width="6" stroke-dasharray="10,10"/>
  <path d="M 200,230 C 210,250 220,270 230,290" stroke="#F00" stroke-width="6" stroke-dasharray="0,10,10,0"/>
  
  <!-- 5,6,7コーナー付近 -->
  <path d="M 480,500 C 460,480 440,460 420,440" stroke="#FFF" stroke-width="6" stroke-dasharray="10,10"/>
  <path d="M 480,500 C 460,480 440,460 420,440" stroke="#F00" stroke-width="6" stroke-dasharray="0,10,10,0"/>
  
  <!-- 3コーナー付近 -->
  <path d="M 630,250 C 610,280 590,310 570,340" stroke="#FFF" stroke-width="6" stroke-dasharray="10,10"/>
  <path d="M 630,250 C 610,280 590,310 570,340" stroke="#F00" stroke-width="6" stroke-dasharray="0,10,10,0"/>
  
  <!-- 施設 -->
  <!-- ピット -->
  <rect x="320" y="80" width="160" height="30" fill="#CCC" stroke="#000" stroke-width="1"/>
  <rect x="345" y="80" width="5" height="30" fill="#333" />
  <rect x="395" y="80" width="5" height="30" fill="#333" />
  <rect x="445" y="80" width="5" height="30" fill="#333" />
  
  <!-- コントロールタワー -->
  <rect x="460" y="60" width="40" height="20" fill="#7699bc" stroke="#000" stroke-width="1"/>
  
  <!-- 研修棟 -->
  <rect x="560" y="90" width="30" height="20" fill="#CCC" stroke="#000" stroke-width="1"/>
  
  <!-- 医務室 -->
  <rect x="720" y="230" width="20" height="20" fill="#fff" stroke="#000" stroke-width="1"/>
  <text x="745" y="220" font-family="sans-serif" font-size="12" fill="#fff">医務室</text>
  <text x="742" y="242" font-family="sans-serif" font-size="16" fill="#f00">+</text>
  
  <!-- タイヤガレージ -->
  <rect x="400" y="240" width="40" height="20" fill="#2b4480" stroke="#000" stroke-width="1"/>
  
  <!-- 研修棟ガレージ -->
  <rect x="560" y="270" width="40" height="20" fill="#2b4480" stroke="#000" stroke-width="1"/>
  
  <!-- スタート位置 -->
  <rect x="730" y="325" width="20" height="20" fill="#3cb371" stroke="#000" stroke-width="1"/>
  <text x="820" y="330" font-family="sans-serif" font-size="12" fill="#fff">スタート</text>
  
  <!-- コーナー番号 -->
  <!-- 1コーナー -->
  <rect x="820" y="110" width="60" height="20" fill="#b22222" stroke="#000" stroke-width="1"/>
  <text x="830" y="125" font-family="sans-serif" font-size="12" fill="#fff">1コーナー</text>
  
  <!-- 2コーナー -->
  <rect x="800" y="430" width="60" height="20" fill="#b22222" stroke="#000" stroke-width="1"/>
  <text x="810" y="445" font-family="sans-serif" font-size="12" fill="#fff">2コーナー</text>
  
  <!-- 3コーナー -->
  <rect x="540" y="590" width="60" height="20" fill="#b22222" stroke="#000" stroke-width="1"/>
  <text x="550" y="605" font-family="sans-serif" font-size="12" fill="#fff">3コーナー</text>
  
  <!-- 4コーナー -->
  <rect x="250" y="540" width="60" height="20" fill="#b22222" stroke="#000" stroke-width="1"/>
  <text x="260" y="555" font-family="sans-serif" font-size="12" fill="#fff">4コーナー</text>
  
  <!-- 5,6,7コーナー -->
  <rect x="620" y="325" width="80" height="20" fill="#b22222" stroke="#000" stroke-width="1"/>
  <text x="625" y="340" font-family="sans-serif" font-size="12" fill="#fff">5・6・7コーナー</text>
  
  <!-- 8コーナー -->
  <rect x="250" y="220" width="60" height="20" fill="#b22222" stroke="#000" stroke-width="1"/>
  <text x="260" y="235" font-family="sans-serif" font-size="12" fill="#fff">8コーナー</text>
  
  <!-- 9コーナー -->
  <rect x="260" y="430" width="60" height="20" fill="#b22222" stroke="#000" stroke-width="1"/>
  <text x="270" y="445" font-family="sans-serif" font-size="12" fill="#fff">9コーナー</text>
  
  <!-- ヘアピンコーナー -->
  <rect x="160" y="100" width="80" height="20" fill="#b22222" stroke="#000" stroke-width="1"/>
  <text x="165" y="115" font-family="sans-serif" font-size="12" fill="#fff">最終コーナー</text>
  
  <!-- 施設ラベル -->
  <rect x="340" y="90" width="40" height="20" fill="#2b4480" stroke="#000" stroke-width="1"/>
  <text x="343" y="105" font-family="sans-serif" font-size="12" fill="#fff">ピット</text>
  
  <rect x="460" y="90" width="80" height="20" fill="#2b4480" stroke="#000" stroke-width="1"/>
  <text x="463" y="105" font-family="sans-serif" font-size="12" fill="#fff">コントロールタワー</text>
  
  <rect x="560" y="90" width="60" height="20" fill="#2b4480" stroke="#000" stroke-width="1"/>
  <text x="565" y="105" font-family="sans-serif" font-size="12" fill="#fff">研修棟</text>
  
  <rect x="680" y="90" width="40" height="20" fill="#2b4480" stroke="#000" stroke-width="1"/>
  <text x="685" y="105" font-family="sans-serif" font-size="12" fill="#fff">車検場</text>
  
  <rect x="400" y="240" width="70" height="20" fill="#2b4480" stroke="#000" stroke-width="1"/>
  <text x="405" y="255" font-family="sans-serif" font-size="12" fill="#fff">タイヤガレージ</text>
  
  <rect x="560" y="270" width="80" height="20" fill="#2b4480" stroke="#000" stroke-width="1"/>
  <text x="565" y="285" font-family="sans-serif" font-size="12" fill="#fff">研修棟ガレージ</text>
  
  <!-- 凡例 -->
  <rect x="70" y="420" width="180" height="150" fill="#efe8c7" stroke="#000" stroke-width="1" rx="5" ry="5" opacity="0.8"/>
  
  <!-- 凡例内容 -->
  <circle cx="85" cy="440" r="5" fill="#fff" stroke="#f00" stroke-width="1"/>
  <text x="95" y="445" font-family="sans-serif" font-size="12" fill="#000">お手洗い</text>
  
  <rect x="75" y="460" width="15" height="10" fill="#fff" stroke="#000" stroke-width="1"/>
  <text x="95" y="470" font-family="sans-serif" font-size="12" fill="#000">喫煙所</text>
  
  <rect x="75" y="485" width="15" height="15" fill="#fff" stroke="#000" stroke-width="1"/>
  <text x="95" y="495" font-family="sans-serif" font-size="12" fill="#000">ガソリンスタンド</text>
  
  <rect x="75" y="510" width="15" height="15" fill="#fff" stroke="#000" stroke-width="1"/>
  <text x="95" y="520" font-family="sans-serif" font-size="12" fill="#000">グリーンウッド</text>
  
  <rect x="75" y="535" width="15" height="15" fill="#fff" stroke="#000" stroke-width="1"/>
  <text x="95" y="545" font-family="sans-serif" font-size="12" fill="#000">自動販売機</text>
  
  <!-- コースマップタイトル -->
  <rect x="0" y="10" width="200" height="30" fill="#000" stroke="#000" stroke-width="1"/>
  <text x="20" y="30" font-family="sans-serif" font-size="16" font-weight="bold" fill="#fff">COURSE MAP</text>
  
  <!-- SODEGAURA FOREST RACEWAY -->
  <text x="680" y="600" font-family="sans-serif" font-size="14" font-weight="bold" fill="#000">SODEGAURA</text>
  <text x="680" y="620" font-family="sans-serif" font-size="14" font-weight="bold" fill="#000">FOREST RACEWAY</text>
</svg> 