<?xml version="1.0" encoding="UTF-8"?>
<svg width="600" height="200" viewBox="0 0 600 200" xmlns="http://www.w3.org/2000/svg">
    <!-- 装飾的な赤いラインのアニメーション -->
    <defs>
        <linearGradient id="redGlow" x1="0%" y1="0%" x2="100%" y2="0%">
            <stop offset="0%" stop-color="#f22" stop-opacity="0.2" />
            <stop offset="50%" stop-color="#f22" stop-opacity="1" />
            <stop offset="100%" stop-color="#f22" stop-opacity="0.2" />
        </linearGradient>
        <filter id="glow" x="-20%" y="-20%" width="140%" height="140%">
            <feGaussianBlur stdDeviation="4" result="blur" />
            <feComposite in="SourceGraphic" in2="blur" operator="over" />
        </filter>
    </defs>
    
    <!-- 装飾的な赤いラインのアニメーション -->
    <path d="M50,100 C150,20 450,180 550,100" stroke="url(#redGlow)" stroke-width="3" fill="none" stroke-dasharray="5,5" filter="url(#glow)">
        <animate attributeName="d" from="M50,100 C150,20 450,180 550,100" to="M50,100 C150,180 450,20 550,100" dur="10s" repeatCount="indefinite" />
    </path>
    
    <!-- RCカーのシルエット - より詳細 -->
    <g transform="translate(80, 110) scale(1.2)">
        <!-- メインボディ -->
        <path d="M100,120 L120,120 L130,110 L150,110 L160,120 L200,120 L210,110 L230,110 L240,120 L260,120 L260,140 L100,140 Z" 
              stroke="#fff" stroke-width="2" fill="none" />
              
        <!-- フロントバンパー -->
        <path d="M100,120 L90,125 L90,135 L100,140" 
              stroke="#fff" stroke-width="2" fill="none" />
              
        <!-- リアウィング -->
        <path d="M260,120 L270,115 L280,115 L280,125 L270,125 L260,120" 
              stroke="#fff" stroke-width="2" fill="none" />
        
        <!-- コックピット/ウィンドウ -->
        <path d="M160,120 L170,112 L190,112 L200,120" 
              stroke="#fff" stroke-width="1.5" fill="none" />
              
        <!-- タイヤ - より詳細 -->
        <g transform="translate(130, 140)">
            <circle cx="0" cy="0" r="15" stroke="#fff" stroke-width="2" fill="none" />
            <circle cx="0" cy="0" r="12" stroke="#fff" stroke-width="0.5" fill="none" />
            <circle cx="0" cy="0" r="8" stroke="#fff" stroke-width="0.5" fill="none" />
            <line x1="-15" y1="0" x2="15" y2="0" stroke="#fff" stroke-width="0.5" />
            <line x1="0" y1="-15" x2="0" y2="15" stroke="#fff" stroke-width="0.5" />
        </g>
        
        <g transform="translate(230, 140)">
            <circle cx="0" cy="0" r="15" stroke="#fff" stroke-width="2" fill="none" />
            <circle cx="0" cy="0" r="12" stroke="#fff" stroke-width="0.5" fill="none" />
            <circle cx="0" cy="0" r="8" stroke="#fff" stroke-width="0.5" fill="none" />
            <line x1="-15" y1="0" x2="15" y2="0" stroke="#fff" stroke-width="0.5" />
            <line x1="0" y1="-15" x2="0" y2="15" stroke="#fff" stroke-width="0.5" />
        </g>
        
        <!-- サスペンション -->
        <path d="M130,140 L140,125 M230,140 L220,125" stroke="#fff" stroke-width="1" fill="none" />
        
        <!-- 排気エフェクト -->
        <g transform="translate(260, 130)">
            <path d="M0,0 C5,0 10,-2 15,0 C20,2 25,3 30,1" stroke="#f22" stroke-width="1.5" fill="none" stroke-dasharray="2,2">
                <animate attributeName="d" from="M0,0 C5,0 10,-2 15,0 C20,2 25,3 30,1" 
                         to="M0,0 C5,-1 10,1 15,-1 C20,1 25,2 30,0" 
                         dur="0.6s" repeatCount="indefinite" />
            </path>
        </g>
    </g>
    
    <!-- 速度線 -->
    <g stroke="#fff" stroke-width="0.5" stroke-dasharray="5,7">
        <line x1="70" y1="130" x2="30" y2="130" />
        <line x1="70" y1="150" x2="20" y2="150" />
        <line x1="100" y1="170" x2="50" y2="170" />
    </g>
    
    <!-- レースフラッグ効果 -->
    <g transform="translate(500, 50)">
        <rect width="40" height="30" fill="none" stroke="#fff" stroke-width="1">
            <animate attributeName="opacity" values="0;0.7;0" dur="3s" repeatCount="indefinite" />
        </rect>
        <rect x="0" y="0" width="10" height="7.5" fill="#fff">
            <animate attributeName="opacity" values="0;0.7;0" dur="3s" repeatCount="indefinite" />
        </rect>
        <rect x="10" y="0" width="10" height="7.5" fill="#000">
            <animate attributeName="opacity" values="0;0.7;0" dur="3s" repeatCount="indefinite" />
        </rect>
        <rect x="20" y="0" width="10" height="7.5" fill="#fff">
            <animate attributeName="opacity" values="0;0.7;0" dur="3s" repeatCount="indefinite" />
        </rect>
        <rect x="30" y="0" width="10" height="7.5" fill="#000">
            <animate attributeName="opacity" values="0;0.7;0" dur="3s" repeatCount="indefinite" />
        </rect>
        <rect x="0" y="7.5" width="10" height="7.5" fill="#000">
            <animate attributeName="opacity" values="0;0.7;0" dur="3s" repeatCount="indefinite" />
        </rect>
        <rect x="10" y="7.5" width="10" height="7.5" fill="#fff">
            <animate attributeName="opacity" values="0;0.7;0" dur="3s" repeatCount="indefinite" />
        </rect>
        <rect x="20" y="7.5" width="10" height="7.5" fill="#000">
            <animate attributeName="opacity" values="0;0.7;0" dur="3s" repeatCount="indefinite" />
        </rect>
        <rect x="30" y="7.5" width="10" height="7.5" fill="#fff">
            <animate attributeName="opacity" values="0;0.7;0" dur="3s" repeatCount="indefinite" />
        </rect>
        <rect x="0" y="15" width="10" height="7.5" fill="#fff">
            <animate attributeName="opacity" values="0;0.7;0" dur="3s" repeatCount="indefinite" />
        </rect>
        <rect x="10" y="15" width="10" height="7.5" fill="#000">
            <animate attributeName="opacity" values="0;0.7;0" dur="3s" repeatCount="indefinite" />
        </rect>
        <rect x="20" y="15" width="10" height="7.5" fill="#fff">
            <animate attributeName="opacity" values="0;0.7;0" dur="3s" repeatCount="indefinite" />
        </rect>
        <rect x="30" y="15" width="10" height="7.5" fill="#000">
            <animate attributeName="opacity" values="0;0.7;0" dur="3s" repeatCount="indefinite" />
        </rect>
        <rect x="0" y="22.5" width="10" height="7.5" fill="#000">
            <animate attributeName="opacity" values="0;0.7;0" dur="3s" repeatCount="indefinite" />
        </rect>
        <rect x="10" y="22.5" width="10" height="7.5" fill="#fff">
            <animate attributeName="opacity" values="0;0.7;0" dur="3s" repeatCount="indefinite" />
        </rect>
        <rect x="20" y="22.5" width="10" height="7.5" fill="#000">
            <animate attributeName="opacity" values="0;0.7;0" dur="3s" repeatCount="indefinite" />
        </rect>
        <rect x="30" y="22.5" width="10" height="7.5" fill="#fff">
            <animate attributeName="opacity" values="0;0.7;0" dur="3s" repeatCount="indefinite" />
        </rect>
    </g>
</svg> 